<svg width="116" height="26" viewBox="0 0 116 26" fill="none" xmlns="http://www.w3.org/2000/svg">
<path d="M27.2001 24.7996C25.8001 23.9996 24.6001 22.8996 23.8001 21.4996C23.0001 20.0996 22.6001 18.5996 22.6001 16.7996C22.6001 15.0996 23.0001 13.4996 23.8001 12.0996C24.6001 10.6996 25.8001 9.59961 27.2001 8.79961C28.6001 7.99961 30.3001 7.59961 32.0001 7.59961C33.5001 7.59961 34.8001 7.8996 36.0001 8.3996C37.2001 8.8996 38.2001 9.59961 39.0001 10.5996L36.9001 12.5996C35.6001 11.1996 34.0001 10.4996 32.2001 10.4996C31.0001 10.4996 29.9001 10.7996 28.9001 11.2996C27.9001 11.7996 27.2001 12.5996 26.6001 13.4996C26.1001 14.3996 25.8001 15.4996 25.8001 16.6996C25.8001 17.8996 26.1001 18.9996 26.6001 19.8996C27.1001 20.7996 27.9001 21.5996 28.9001 22.0996C29.9001 22.5996 31.0001 22.8996 32.2001 22.8996C34.1001 22.8996 35.7001 22.1996 36.9001 20.7996L39.0001 22.7996C38.2001 23.7996 37.2001 24.4996 35.9001 24.9996C34.7001 25.4996 33.4001 25.7996 31.9001 25.7996C30.3001 25.9996 28.7001 25.5996 27.2001 24.7996Z" fill="#FF5166"/>
<path d="M41.2002 0H45.0002V26H41.2002V0Z" fill="#FF5166"/>
<path d="M64.8999 17.9996H50.9999C51.1999 19.2996 51.8999 20.2996 52.8999 21.0996C53.8999 21.8996 55.1999 22.1996 56.6999 22.1996C58.5999 22.1996 60.1999 21.5996 61.4999 20.2996L63.6999 22.7996C62.8999 23.6996 61.8999 24.4996 60.6999 24.9996C59.4999 25.4996 58.0999 25.6996 56.5999 25.6996C54.6999 25.6996 52.8999 25.2996 51.4999 24.4996C49.9999 23.6996 48.8999 22.6996 48.0999 21.2996C47.2999 19.8996 46.8999 18.3996 46.8999 16.5996C46.8999 14.8996 47.2999 13.2996 48.0999 11.9996C48.8999 10.5996 49.9999 9.49961 51.3999 8.79961C52.7999 7.99961 54.3999 7.59961 56.0999 7.59961C57.7999 7.59961 59.3999 7.9996 60.6999 8.6996C62.0999 9.4996 63.0999 10.4996 63.8999 11.8996C64.6999 13.2996 64.9999 14.8996 64.9999 16.6996C64.9999 17.0996 64.8999 17.4996 64.8999 17.9996ZM52.6999 12.1996C51.7999 12.9996 51.1999 13.9996 50.9999 15.2996H60.9999C60.7999 13.9996 60.2999 12.9996 59.3999 12.1996C58.4999 11.3996 57.3999 10.9996 55.9999 10.9996C54.6999 10.9996 53.5999 11.3996 52.6999 12.1996Z" fill="#FF5166"/>
<path d="M80.3999 9.69939C81.7999 10.8994 82.4999 12.7994 82.4999 15.2994V25.6994H78.5999V23.4994C78.0999 24.2994 77.3999 24.8994 76.3999 25.2994C75.4999 25.6994 74.2999 25.8994 72.9999 25.8994C71.6999 25.8994 70.4999 25.6994 69.4999 25.1994C68.4999 24.6994 67.6999 24.0994 67.1999 23.2994C66.6999 22.4994 66.3999 21.5994 66.3999 20.5994C66.3999 18.9994 66.9999 17.6994 68.1999 16.7994C69.3999 15.7994 71.1999 15.3994 73.7999 15.3994H78.3999V15.0994C78.3999 13.8994 77.9999 12.8994 77.2999 12.2994C76.5999 11.5994 75.4999 11.2994 73.9999 11.2994C72.9999 11.2994 71.9999 11.4994 71.0999 11.7994C70.0999 12.0994 69.2999 12.4994 68.6999 13.0994L67.0999 10.0994C67.9999 9.3994 69.0999 8.89939 70.3999 8.49939C71.6999 8.09939 73.0999 7.89939 74.4999 7.89939C76.9999 7.79939 78.9999 8.39939 80.3999 9.69939ZM76.5999 22.1994C77.3999 21.6994 77.9999 20.9994 78.2999 20.1994V18.0994H73.9999C71.5999 18.0994 70.3999 18.8994 70.3999 20.3994C70.3999 21.1994 70.6999 21.6994 71.2999 22.1994C71.8999 22.5994 72.6999 22.8994 73.7999 22.8994C74.8999 22.8994 75.7999 22.6994 76.5999 22.1994Z" fill="#FF5166"/>
<path d="M97 0H101.1V26H97V0Z" fill="#FF5166"/>
<path d="M95.2 7.80078V11.7008C94.8 11.6008 94.5 11.6008 94.2 11.6008C92.6 11.6008 91.3 12.1008 90.4 13.0008C89.5 13.9008 89 15.3008 89 17.1008V25.7008H85V8.00078H88.9V10.6008C90.1 8.70078 92.2 7.80078 95.2 7.80078Z" fill="#FF5166"/>
<path d="M115 7.80078H103V11.8008H115V7.80078Z" fill="#FF5166"/>
<path d="M109 3H105V8H109V3Z" fill="#FF5166"/>
<path d="M115.8 24.6C115.3 25 114.6 25.4 113.9 25.6C113.1 25.8 112.3 25.9 111.5 25.9C109.4 25.9 107.9 25.3 106.7 24.2C105.5 23.1 105.1 21.5 105.1 19.4V11H109.1V19.3C109.1 20.2 109.5 20.9 109.9 21.4C110.4 21.9 111.1 22.1 112 22.1C113 22.1 113.9 21.8 114.6 21.3L115.8 24.6Z" fill="#FF5166"/>
<path d="M13.5998 15.0996H17.9998V25.9996H7.2998V21.5996H13.5998V15.0996Z" fill="#FF5166"/>
<path d="M18 0.300781V4.80078H4.5V23.3008H0V0.300781H18Z" fill="#FF5166"/>
<path d="M18.1001 7.90039H13.6001V12.4004H18.1001V7.90039Z" fill="#084B83"/>
</svg>
